<!--?xml version="1.0" encoding="utf-8"?-->
<!-- Generator: Adobe Illustrator 15.1.0, SVG Export Plug-In . SVG Version: 6.00 Build 0)  -->

<svg version="1.1" id="_x32_" xmlns="http://www.w3.org/2000/svg" xmlns:xlink="http://www.w3.org/1999/xlink" x="0px" y="0px" width="512px" height="512px" viewBox="0 0 512 512" style="width: 256px; height: 256px; opacity: 1;" xml:space="preserve">
<style type="text/css">

	.st0{fill:#4B4B4B;}

</style>
<g>
	<path class="st0" d="M397.281,141.281H256H114.719C51.453,141.281,0,192.75,0,256s51.453,114.719,114.719,114.719H256h141.281
		C460.531,370.719,512,319.25,512,256S460.531,141.281,397.281,141.281z M114.719,316.266c-33.281,0-60.266-26.984-60.266-60.266
		s26.984-60.25,60.266-60.25s60.25,26.969,60.25,60.25S148,316.266,114.719,316.266z M256,316.266
		c-33.281,0-60.266-26.984-60.266-60.266s26.984-60.25,60.266-60.25v-0.016c33.281,0,60.25,26.984,60.25,60.266
		S289.281,316.266,256,316.266z M397.281,316.266c-33.281,0-60.266-26.984-60.266-60.266s26.984-60.266,60.266-60.266
		s60.266,26.984,60.266,60.266S430.563,316.266,397.281,316.266z" style="fill: rgb(75, 75, 75);"></path>
</g>
</svg>
